<svg width="34" height="29" viewBox="0 0 34 29" fill="none" xmlns="http://www.w3.org/2000/svg">
<path d="M31.3183 2.58591C30.0413 3.86291 28.8601 5.3953 27.7746 7.1831C26.7531 8.97089 26.0826 10.7587 25.7634 12.5465C28.1258 12.5465 30.0732 13.2169 31.6056 14.5577C33.2019 15.8986 34 17.7822 34 20.2084C34 22.5709 33.2657 24.5502 31.7972 26.1465C30.3925 27.6789 28.5408 28.4451 26.2423 28.4451C23.9437 28.4451 22.0601 27.6469 20.5915 26.0507C19.1869 24.3906 18.4845 22.3793 18.4845 20.0169C18.4845 16.0582 19.4423 12.2592 21.3577 8.61972C23.2732 4.91643 25.6995 2.04319 28.6366 0L31.3183 2.58591ZM12.8338 2.58591C11.5568 3.86291 10.3756 5.3953 9.29014 7.1831C8.26855 8.97089 7.59812 10.7587 7.27887 12.5465C9.64131 12.5465 11.5887 13.2169 13.1211 14.5577C14.7174 15.8986 15.5155 17.7822 15.5155 20.2084C15.5155 22.5709 14.7812 24.5502 13.3127 26.1465C11.908 27.6789 10.0563 28.4451 7.75775 28.4451C5.45916 28.4451 3.57559 27.6469 2.10704 26.0507C0.702348 24.3906 0 22.3793 0 20.0169C0 16.0582 0.957747 12.2592 2.87324 8.61972C4.78873 4.91643 7.21502 2.04319 10.1521 0L12.8338 2.58591Z" fill="#E46E45"/>
</svg>
